<?xml version="1.0" encoding="utf-8"?>
<!-- Generator: Adobe Illustrator 28.0.0, SVG Export Plug-In . SVG Version: 6.00 Build 0)  -->
<svg version="1.1" id="Layer_1" xmlns="http://www.w3.org/2000/svg" xmlns:xlink="http://www.w3.org/1999/xlink" x="0px" y="0px"
	 viewBox="0 0 75 75" style="enable-background:new 0 0 75 75;" xml:space="preserve">
<style type="text/css">
	.st0{fill:#3B579D;}
	.st1{fill:#FFFFFF;}
</style>
<g>
	<path class="st0" d="M37.55,74.87L37.55,74.87c-20.63,0-37.37-16.73-37.37-37.37l0,0c0-20.63,16.73-37.37,37.37-37.37l0,0
		c20.63,0,37.37,16.73,37.37,37.37l0,0C74.91,58.14,58.18,74.87,37.55,74.87z"/>
	<path id="f" class="st1" d="M47.26,74.87V45.93h9.72l1.46-11.28H47.26v-7.2c0-3.27,0.9-5.49,5.59-5.49h5.97V11.87
		c-1.03-0.13-4.58-0.44-8.71-0.44c-8.61,0-14.51,5.25-14.51,14.91v8.32h-9.74v11.28h9.74v28.94H47.26z"/>
</g>
</svg>
