<?xml version="1.0" encoding="utf-8"?>
<!-- Generator: Adobe Illustrator 28.0.0, SVG Export Plug-In . SVG Version: 6.00 Build 0)  -->
<svg version="1.1" id="Layer_1" xmlns="http://www.w3.org/2000/svg" xmlns:xlink="http://www.w3.org/1999/xlink" x="0px" y="0px"
	 viewBox="0 0 75 75" style="enable-background:new 0 0 75 75;" xml:space="preserve">
<style type="text/css">
	.st0{fill:url(#SVGID_1_);}
	.st1{fill:#FFFFFF;}
</style>
<linearGradient id="SVGID_1_" gradientUnits="userSpaceOnUse" x1="11.0247" y1="11.9677" x2="63.9506" y2="64.8936" gradientTransform="matrix(1 0 0 -1 0 76)">
	<stop  offset="0" style="stop-color:#FFD521"/>
	<stop  offset="0.0551" style="stop-color:#FFD020"/>
	<stop  offset="0.1241" style="stop-color:#FEC01E"/>
	<stop  offset="0.2004" style="stop-color:#FCA71B"/>
	<stop  offset="0.2821" style="stop-color:#FA8316"/>
	<stop  offset="0.3681" style="stop-color:#F85510"/>
	<stop  offset="0.4563" style="stop-color:#F51E09"/>
	<stop  offset="0.5" style="stop-color:#F30005"/>
	<stop  offset="0.5035" style="stop-color:#F20007"/>
	<stop  offset="0.5966" style="stop-color:#E1003B"/>
	<stop  offset="0.6879" style="stop-color:#D30067"/>
	<stop  offset="0.7757" style="stop-color:#C70088"/>
	<stop  offset="0.8589" style="stop-color:#BF00A0"/>
	<stop  offset="0.9357" style="stop-color:#BB00AF"/>
	<stop  offset="1" style="stop-color:#B900B4"/>
</linearGradient>
<path class="st0" d="M37.49,75L37.49,75C16.82,75,0.06,58.24,0.06,37.57l0,0c0-20.67,16.76-37.43,37.43-37.43l0,0
	c20.67,0,37.43,16.76,37.43,37.43l0,0C74.91,58.24,58.15,75,37.49,75z"/>
<g>
	<path class="st1" d="M37.49,16.63c6.82,0,7.63,0.02,10.32,0.15c2.49,0.11,3.85,0.53,4.75,0.88c1.19,0.46,2.04,1.02,2.93,1.91
		s1.44,1.74,1.91,2.93c0.35,0.9,0.76,2.25,0.88,4.75c0.12,2.69,0.15,3.5,0.15,10.32s-0.02,7.63-0.15,10.32
		c-0.11,2.49-0.53,3.85-0.88,4.75c-0.46,1.19-1.02,2.04-1.91,2.93c-0.89,0.89-1.74,1.44-2.93,1.91c-0.9,0.35-2.25,0.76-4.75,0.88
		c-2.69,0.12-3.5,0.15-10.32,0.15s-7.63-0.02-10.32-0.15c-2.49-0.11-3.85-0.53-4.75-0.88c-1.19-0.46-2.04-1.02-2.93-1.91
		c-0.89-0.89-1.44-1.74-1.91-2.93c-0.35-0.9-0.76-2.25-0.88-4.75c-0.12-2.69-0.15-3.5-0.15-10.32s0.02-7.63,0.15-10.32
		c0.11-2.49,0.53-3.85,0.88-4.75c0.46-1.19,1.02-2.04,1.91-2.93c0.89-0.89,1.74-1.44,2.93-1.91c0.9-0.35,2.25-0.76,4.75-0.88
		C29.86,16.65,30.67,16.63,37.49,16.63 M37.49,12.02c-6.94,0-7.81,0.03-10.53,0.16c-2.72,0.13-4.57,0.55-6.21,1.19
		c-1.68,0.64-3.11,1.52-4.52,2.94c-1.42,1.42-2.29,2.84-2.95,4.53c-0.63,1.62-1.06,3.48-1.19,6.21s-0.16,3.59-0.16,10.53
		s0.03,7.81,0.16,10.53c0.13,2.72,0.55,4.57,1.19,6.21c0.65,1.67,1.53,3.1,2.95,4.51c1.42,1.42,2.84,2.29,4.53,2.95
		c1.62,0.63,3.48,1.06,6.21,1.19c2.72,0.13,3.59,0.16,10.53,0.16s7.81-0.03,10.53-0.16c2.72-0.13,4.57-0.55,6.21-1.19
		c1.67-0.65,3.1-1.53,4.51-2.95c1.42-1.42,2.29-2.84,2.95-4.53c0.63-1.62,1.06-3.48,1.19-6.21c0.13-2.72,0.16-3.59,0.16-10.53
		s-0.03-7.81-0.16-10.53c-0.13-2.72-0.55-4.57-1.19-6.21c-0.65-1.67-1.53-3.1-2.95-4.51c-1.42-1.42-2.84-2.29-4.53-2.95
		c-1.62-0.63-3.48-1.06-6.21-1.19C45.29,12.05,44.43,12.02,37.49,12.02L37.49,12.02z"/>
	<path class="st1" d="M37.49,24.45c-7.25,0-13.12,5.88-13.12,13.12s5.88,13.12,13.12,13.12s13.12-5.88,13.12-13.12
		S44.73,24.45,37.49,24.45z M37.49,46.09c-4.7,0-8.52-3.81-8.52-8.52s3.82-8.52,8.52-8.52s8.52,3.81,8.52,8.52
		S42.19,46.09,37.49,46.09z"/>
	<circle class="st1" cx="51.13" cy="23.93" r="3.07"/>
</g>
</svg>
