<?xml version="1.0" encoding="utf-8"?>
<!-- Generator: Adobe Illustrator 28.0.0, SVG Export Plug-In . SVG Version: 6.00 Build 0)  -->
<svg version="1.1" id="Layer_1" xmlns="http://www.w3.org/2000/svg" xmlns:xlink="http://www.w3.org/1999/xlink" x="0px" y="0px"
	 viewBox="0 0 75 75" style="enable-background:new 0 0 75 75;" xml:space="preserve">
<style type="text/css">
	.st0{fill:url(#SVGID_1_);}
	.st1{fill-rule:evenodd;clip-rule:evenodd;fill:#FFFFFF;}
</style>
<g id="WhatsApp-Logo-Icon">
	
		<linearGradient id="SVGID_1_" gradientUnits="userSpaceOnUse" x1="2.297383e-03" y1="75.0002" x2="0.9971" y2="75.0002" gradientTransform="matrix(0 -75 75 0 -5587.5 75)">
		<stop  offset="0" style="stop-color:#25CF43"/>
		<stop  offset="1" style="stop-color:#61FD7D"/>
	</linearGradient>
	<path class="st0" d="M17.15,0.22c-1.64,0.07-3.81,0.22-4.78,0.45c-1.49,0.3-2.91,0.75-4.03,1.34C6.92,2.68,5.73,3.57,4.69,4.62
		C3.57,5.74,2.67,6.93,2,8.35c-0.6,1.12-1.04,2.54-1.34,4.03c-0.22,0.97-0.37,3.13-0.37,4.78c-0.07,0.67-0.07,1.57-0.07,2.01v36.71
		v2.01c0.07,1.64,0.22,3.81,0.45,4.78C0.96,64.16,1.4,65.58,2,66.7c0.67,1.42,1.57,2.61,2.61,3.66c1.12,1.12,2.31,2.01,3.73,2.69
		c1.12,0.6,2.54,1.04,4.03,1.34c0.97,0.22,3.13,0.37,4.78,0.37c0.67,0.07,1.57,0.07,2.01,0.07h36.71h2.01
		c1.64-0.07,3.81-0.22,4.78-0.45c1.49-0.3,2.91-0.75,4.03-1.34c1.42-0.67,2.61-1.57,3.66-2.61c1.12-1.12,2.01-2.31,2.69-3.73
		c0.6-1.12,1.04-2.54,1.34-4.03c0.22-0.97,0.37-3.13,0.37-4.78c0.07-0.67,0.07-1.57,0.07-2.01V17.15c-0.07-1.64-0.22-3.81-0.45-4.78
		c-0.3-1.49-0.75-2.91-1.34-4.03c-0.67-1.42-1.57-2.61-2.61-3.66c-1.12-1.12-2.31-2.01-3.73-2.69c-1.12-0.6-2.54-1.04-4.03-1.34
		c-0.97-0.22-3.13-0.37-4.78-0.37c-0.67-0.07-1.57-0.07-2.01-0.07C55.87,0.22,17.15,0.22,17.15,0.22z"/>
	<path class="st1" d="M50.45,42.43c-0.66-0.33-3.93-1.94-4.54-2.16c-0.61-0.22-1.05-0.33-1.49,0.33c-0.44,0.67-1.72,2.16-2.1,2.6
		c-0.39,0.44-0.78,0.5-1.44,0.17c-0.66-0.33-2.81-1.03-5.34-3.3c-1.98-1.76-3.31-3.94-3.7-4.6c-0.39-0.67-0.04-1.02,0.29-1.36
		c0.3-0.3,0.66-0.78,1-1.16c0.33-0.39,0.44-0.67,0.66-1.11c0.22-0.44,0.11-0.83-0.06-1.16c-0.17-0.33-1.5-3.6-2.05-4.93
		c-0.54-1.3-1.09-1.12-1.5-1.14c-0.39-0.02-0.83-0.02-1.27-0.02c-0.44,0-1.16,0.17-1.77,0.83c-0.61,0.67-2.33,2.27-2.33,5.54
		s2.38,6.43,2.71,6.87c0.33,0.44,4.69,7.15,11.35,10.03c1.59,0.68,2.82,1.09,3.79,1.4c1.59,0.51,3.04,0.43,4.19,0.26
		c1.28-0.19,3.93-1.61,4.49-3.16c0.55-1.55,0.55-2.88,0.39-3.16C51.56,42.93,51.11,42.77,50.45,42.43 M38.32,58.98L38.32,58.98
		c-3.98,0-7.87-1.07-11.26-3.08l-0.81-0.48l-8.37,2.19l2.23-8.15l-0.53-0.84c-2.21-3.52-3.38-7.59-3.38-11.76
		c0-12.18,9.92-22.1,22.11-22.1c5.9,0,11.45,2.3,15.63,6.48s6.47,9.73,6.47,15.63C60.42,49.07,50.51,58.98,38.32,58.98 M57.14,18.08
		c-5.02-5.03-11.7-7.79-18.81-7.8c-14.66,0-26.59,11.93-26.6,26.59c0,4.69,1.22,9.26,3.55,13.29L11.5,63.93l14.1-3.7
		c3.88,2.12,8.26,3.23,12.71,3.24h0.01c14.66,0,26.59-11.93,26.6-26.59C64.92,29.78,62.16,23.1,57.14,18.08"/>
</g>
</svg>
