<?xml version="1.0" encoding="utf-8"?>
<!-- Generator: Adobe Illustrator 27.8.1, SVG Export Plug-In . SVG Version: 6.00 Build 0)  -->
<svg version="1.1" id="Layer_1" xmlns="http://www.w3.org/2000/svg" xmlns:xlink="http://www.w3.org/1999/xlink" x="0px" y="0px"
	 viewBox="0 0 750 1950" style="enable-background:new 0 0 750 1950;" xml:space="preserve">
<style type="text/css">
	.st0{fill:#1318F8;}
	.st1{fill:#F9ED32;}
	.st2{fill:#1318F8;stroke:#FFF200;stroke-width:6;stroke-miterlimit:10;}
	.st3{fill:#1318F8;stroke:#FFF200;stroke-width:3;stroke-miterlimit:10;}
	.st4{fill:none;stroke:#FFF200;stroke-width:4;stroke-miterlimit:10;}
	.st5{fill:#1318F8;stroke:#FFF200;stroke-width:4;stroke-miterlimit:10;}
	.st6{fill:none;}
	.st7{fill:#FFF200;}
	.st8{font-family:'Arial-Black';}
	.st9{font-size:72px;}
	.st10{letter-spacing:14;}
	.st11{font-size:60px;}
	.st12{letter-spacing:12;}
	.st13{font-size:48px;}
	.st14{fill:#231F20;stroke:#FFF200;stroke-miterlimit:10;}
	.st15{stroke:#FFF200;}
	.st16{fill:none;stroke:#FFF200;stroke-width:3;stroke-miterlimit:10;}
</style>
<rect x="-0.78" y="472.8" class="st0" width="750.7" height="1000.18"/>
<rect x="-0.62" y="1298.25" class="st1" width="750.54" height="101.62"/>
<path class="st2" d="M149.64,504.06c33.21,0.19,66.42,0.37,99.63,0.56c-0.28,62.42-0.56,124.84-0.84,187.26
	c-0.98,3.12-3.28,8.87-8.65,13.95c-9.25,8.75-20.68,8.96-23.44,8.93c0-41.49,0-82.98,0-124.46c-0.58-8.63-3.32-32.51-21.49-54.98
	C178.27,514.82,158.02,506.84,149.64,504.06z"/>
<path class="st2" d="M184.25,586.66c0.47,43.07,0.93,86.14,1.4,129.21c-42.23-0.28-84.46-0.56-126.7-0.84
	c-2.34-0.07-9.46-0.57-16.19-5.86c-6.67-5.25-8.86-11.97-9.49-14.23c-0.09-55.44-0.19-110.88-0.28-166.33
	c0.25-2.13,1.45-10.1,8.37-16.47c7.79-7.17,17.11-7.04,18.98-6.98c16.56-0.19,33.12-0.37,49.67-0.56
	c-7.76,2.56-18.43,7.05-29.58,15.07c-13.3,9.57-21.81,20.25-26.79,27.63c-0.28,12.09-0.56,24.19-0.84,36.28
	c10.88,0.09,21.77,0.19,32.65,0.28c-0.19-3.04-1-20.46,12.28-34.88c12.53-13.62,28.72-14.89,33.21-15.07
	c23.43-0.92,38.16,15.9,40.74,18.98C183.07,566.46,184.12,581.65,184.25,586.66z"/>
<path class="st2" d="M68.99,595.59c-3.21-0.03-8.72-0.09-12-4.19c-1.61-2.01-2.08-4.24-2.23-5.58c9.4,0.09,18.79,0.19,28.19,0.28
	c-0.2,1.41-0.77,3.99-2.79,6.14C76.94,595.67,72.31,595.63,68.99,595.59z"/>
<path class="st2" d="M70.67,612.34c-5.2,0.26-7.88,14.17-8.65,18.14c-1.06,5.51-2.16,11.6,1.4,15.07c2.18,2.13,5.2,2.39,6.7,2.51
	c0.49,0.04,7.42,0.53,10.88-3.91c3.02-3.87,1.57-9.12,0-14.79C80.48,627.53,76.21,612.06,70.67,612.34z"/>
<path class="st2" d="M268.25,504.34c29.95-0.09,59.91-0.19,89.86-0.28c3.26,4.84,6.51,9.67,9.77,14.51c0.56,0.8,2.49,3.72,1.67,6.98
	c-1.12,4.5-6.75,6.79-11.16,6.14c-3.68-0.54-5.98-3.05-6.7-3.91c-5.3-4.28-10.6-8.56-15.91-12.84c0.19,4.37,0.37,8.74,0.56,13.12
	c-0.06,1.78-0.25,12.4,8.09,20.65c6.82,6.74,15.02,7.64,17.3,7.81c22.05,48.84,44.09,97.67,66.14,146.51
	c-0.78,1.46-1.65,3.43-2.23,5.86c-0.82,3.42-0.76,6.37-0.56,8.37c-36.28-0.37-72.56-0.74-108.84-1.12
	c5.49-33.58,10.98-67.16,16.47-100.74c3.25-0.85,8.26-2.7,12.84-6.98c2.16-2.02,8.41-7.86,8.37-16.19c-0.02-3.38-1.06-5.83-2.2-8.41
	c-1.58-3.58-5.24-10.32-13.71-16.43c-2.79,0-5.58,0-8.37,0c0.09,6.6,0.19,13.21,0.28,19.81c-0.73,0.79-4.98,5.25-11.16,5.02
	c-6.57-0.24-12.63-5.67-14.23-13.4c0.09-4.74,0.19-9.49,0.28-14.23c-2.26,0.8-6.15,2.52-9.77,6.14c-1.65,1.65-6.62,6.77-7.26,14.51
	c-0.59,7.16,2.85,12.58,5.86,17.3c2.37,3.72,4.89,6.39,6.7,8.09c-3.53,34.42-7.07,68.84-10.6,103.26
	c-1.07,0.14-9.22,1.07-15.63-5.02c-7.14-6.8-5.71-16.25-5.58-17.02C268.43,629.36,268.34,566.85,268.25,504.34z"/>
<path class="st2" d="M435.41,706.94c5.67,0.09,11.35,0.19,17.02,0.28c0.15,0.29,2.12,4.27,0,7.81c-2.05,3.43-6.21,3.58-7.53,3.63
	c-1.19,0.04-6.46,0.04-8.93-4.19C434.01,711.14,435.2,707.55,435.41,706.94z"/>
<path class="st2" d="M482.85,504.75c-35.91-0.42-71.81-0.84-107.72-1.25c2.83,2.06,6.77,5.26,10.88,9.77
	c4.26,4.68,6.51,7.14,7.26,10.6c1.88,8.68-7.05,16.97-8.65,18.42c21.02,50.6,42.05,101.21,63.07,151.81
	c2.8,1.16,6.63,3.28,9.21,7.26c3.39,5.22,1.97,9.55,4.74,10.88c4.46,2.15,12.74-6.79,13.67-7.81c4.17-4.58,6.22-9.4,7.26-12.56
	C482.66,629.5,482.75,567.13,482.85,504.75z"/>
<path class="st2" d="M504.62,504.62c62.14,0,124.28,0,186.42,0c2.8,0.47,11.73,2.35,18.7,10.33c4.67,5.34,6.33,10.99,6.98,13.95
	c0.19,23.35,0.37,46.7,0.56,70.05c-30.98,13.3-61.95,26.6-92.93,39.91c5.58,12.37,11.16,24.74,16.74,37.12
	c25.49-10.7,50.98-21.4,76.46-32.09c0,15.16,0,30.33,0,45.49c0.02,2.1-0.14,9.77-5.86,16.74c-6.2,7.55-14.54,8.94-16.47,9.21
	c-54.42,0.19-108.84,0.37-163.26,0.56c-1.95,0.22-12.34,1.19-20.65-6.14c-4.12-3.63-6.07-7.85-6.98-10.33
	c-0.09-36.47-0.19-72.93-0.28-109.4c8.65,16.37,17.3,32.74,25.95,49.12c13.67-6.7,27.35-13.4,41.02-20.09
	c-0.02-0.04-20.93-53.3-20.93-53.3c-14.51,5.21-29.02,10.42-43.53,15.63c16.28-6.23,32.56-12.47,48.84-18.7
	c-3.91-9.4-7.81-18.79-11.72-28.19c-12.93,4.65-25.86,9.3-38.79,13.95C504.8,533.83,504.71,519.22,504.62,504.62z"/>
<path class="st3" d="M588.34,647.78c-14.98,5.95-29.95,11.91-44.93,17.86c3.91,10.98,7.81,21.95,11.72,32.93
	c5.4,4.03,10.34,5.52,13.4,6.14c8.54,1.75,15.66-0.51,22.88-2.79c5.87-1.86,10.5-4.11,13.67-5.86
	C599.5,679.97,593.92,663.87,588.34,647.78z"/>
<path class="st3" d="M610.94,691.31c8.09-3.35,16.19-6.7,24.28-10.05c-7.26-15.91-14.51-31.81-21.77-47.72
	c-6.51,3.16-13.02,6.33-19.53,9.49C599.59,659.13,605.27,675.22,610.94,691.31z"/>
<path class="st3" d="M579.13,621.27c3.26,6.7,6.51,13.4,9.77,20.09c-16.56,6.79-33.12,13.58-49.67,20.37
	c-3.53-5.21-7.07-10.42-10.6-15.63C545.46,637.83,562.29,629.55,579.13,621.27z"/>
<path class="st4" d="M118.85,754.48c13.27-0.5,26.54-0.99,39.81-1.49c-0.93-3.09-3-8.34-7.81-12.65c-4.58-4.1-9.54-5.46-13.21-6.33
	c-21.88-5.17-43.4-3.71-48.19-3.35c-17.71,1.32-23.62,3.58-26.42,4.84c-6.07,2.72-17.78,7.98-18.6,15.63
	c-0.9,8.43,11.5,18.99,31.26,24.19c14.39,2.6,28.78,5.21,43.16,7.81c1.31,0.73,3.96,2.45,4.09,4.84c0.23,4.12-7.2,7.12-8.93,7.81
	c-7.07,2.85-17.28,3.2-25.67-2.54c-4.34-2.97-6.85-6.64-8.19-9c-13.52,0.12-27.04,0.25-40.56,0.37c1.56,4.44,4.78,11.47,11.53,17.12
	c2.28,1.9,7.75,5.95,24.93,8.93c5.53,0.96,21.09,3.33,43.53,1.12c19.33-1.91,26.43-5.52,29.77-7.44
	c5.15-2.97,13.69-8.07,14.51-15.63c0.97-8.94-9.08-19.48-25.12-24.56c-17.55-3.22-35.1-6.45-52.65-9.67
	c-1.24-1.84-1.32-3.18-1.12-4.09c1.04-4.69,11.34-5.87,16-5.95c3.6-0.06,7.28-0.12,11.16,2.23
	C116.24,749.14,118.12,752.81,118.85,754.48z"/>
<path class="st4" d="M167.6,809.92c17.24-26.29,34.48-52.59,51.72-78.88c14.76,0.25,29.52,0.5,44.28,0.74
	c17.36,26.29,34.73,52.59,52.09,78.88c-14.76-0.25-29.52-0.5-44.28-0.74c-1.61-4.34-3.22-8.68-4.84-13.02
	c-16.37,0.12-32.74,0.25-49.12,0.37c-1.98,4.22-3.97,8.43-5.95,12.65C196.87,809.92,182.23,809.92,167.6,809.92z"/>
<path class="st4" d="M240.53,751.87c5.21,9.67,10.42,19.35,15.63,29.02c-9.92-0.12-19.84-0.25-29.77-0.37
	C231.1,770.97,235.81,761.42,240.53,751.87z"/>
<path class="st4" d="M325.36,810.29c0-26.17,0-52.34,0-78.51c14.26,0.12,28.53,0.25,42.79,0.37c0,19.84,0,39.69,0,59.53
	c21.71-0.12,43.41-0.25,65.12-0.37c0,6.2,0,12.4,0,18.6C397.3,810.04,361.33,810.17,325.36,810.29z"/>
<path class="st4" d="M426.2,731.41c14.76,0.12,29.52,0.25,44.28,0.37c10.05,18.48,20.09,36.96,30.14,55.44
	c9.61-18.29,19.22-36.59,28.84-54.88c14.57-0.06,29.15-0.12,43.72-0.19c-16.62,26.17-33.24,52.34-49.86,78.51
	c-15.38,0-30.76,0-46.14,0C460.18,784.24,443.19,757.83,426.2,731.41z"/>
<path class="st5" d="M612.25,770.48c0.4-12.26,16.65-22.23,30.88-21.95c13.44,0.26,29.67,9.75,29.77,22.7
	c0.09,12.39-14.64,22.02-27.16,23.07C629.88,795.62,611.81,783.68,612.25,770.48z"/>
<path class="st4" d="M645.36,812.15c8.16,0.69,18.95,0.48,30.88-2.98c7.09-2.05,14.77-4.28,22.33-10.79
	c3.87-3.34,14.38-12.4,14.88-26.42c0.57-15.81-12.01-26.36-15.63-29.4c-13-10.9-28.04-10.94-32.37-10.79
	c-12.4-0.5-24.81-0.99-37.21-1.49c-6.06-0.03-16.64,0.69-28.28,5.95c-8.43,3.82-19.1,8.64-24.56,20.47
	c-0.39,0.85-7.41,16.71,0.74,30.88c4.29,7.46,10.59,10.64,19.72,15.26c13.8,6.97,26.89,8.21,35.35,8.93
	C637.04,812.28,641.92,812.26,645.36,812.15z"/>
<rect x="48.34" y="828.9" class="st6" width="650.79" height="74.23"/>
<text transform="matrix(1 0 0 1 107.3697 880.4474)" class="st7 st8 st9 st10">PLUMBING</text>
<rect x="53.92" y="907.59" class="st6" width="629.58" height="377.86"/>
<text transform="matrix(1 0 0 1 53.921 950.5529)"><tspan x="0" y="0" class="st7 st8 st11 st12">*</tspan><tspan x="45.37" y="0" class="st7 st8 st11">LEAK DETECTION</tspan><tspan x="0" y="66.97" class="st7 st8 st13">*Burst Geysers</tspan><tspan x="0" y="133.94" class="st7 st8 st13">*Burst Pipes</tspan><tspan x="0" y="200.91" class="st7 st8 st13">*Leakning Toilets</tspan><tspan x="0" y="267.88" class="st7 st8 st13">*Blocked Drains</tspan><tspan x="0" y="334.85" class="st7 st8 st13">*Bathroom Renovations</tspan></text>
<rect x="92.43" y="1319.5" class="st6" width="559.81" height="59.72"/>
<text transform="matrix(1 0 0 1 92.4327 1371.0499)"><tspan x="0" y="0" class="st14 st8 st9">082 554 3870</tspan><tspan x="528.26" y="0" class="st15 st8 st11"> </tspan></text>
<path class="st16" d="M12.62,486.2c241.3,0,482.6,0,723.91,0c0.19,270.33,0.37,540.65,0.56,810.98c-241.67,0-483.35,0-725.02,0
	C12.25,1026.85,12.43,756.52,12.62,486.2z"/>
<polygon class="st1" points="749.92,472.8 749.92,1298.25 737.08,1298.25 737.08,488.45 12.06,488.45 12.06,1298.25 -0.78,1298.25 
	-0.78,472.8 "/>
</svg>
